<?xml version="1.0" standalone="no"?><!DOCTYPE svg PUBLIC "-//W3C//DTD SVG 1.1//EN" "http://www.w3.org/Graphics/SVG/1.1/DTD/svg11.dtd"><svg t="1566315175629" class="icon" viewBox="0 0 1024 1024" version="1.1" xmlns="http://www.w3.org/2000/svg" p-id="8241" xmlns:xlink="http://www.w3.org/1999/xlink" width="500" height="500"><defs><style type="text/css"></style></defs><path d="M30.297538 914.669966c-4.158716 0-8.609075-1.044796-12.766768-2.894933-10.1645-4.619204-14.980179-15.319917-12.888542-28.401864 8.073886-48.879244 24.365944-94.595448 48.343031-135.962601 42.460044-72.928986 102.548584-128.008442 178.639586-163.41279 9.775644-4.499477 19.673062-8.585539 29.569456-12.159948 0.267083-0.121773 0.534166-0.121773 0.777713-0.268106 1.702782-0.38988 4.450359-1.191128 6.396687-3.964288 0.923022-1.193175 1.165546-2.77316 1.044796-4.206812-0.267083-1.458211-1.167592-2.794649-2.335185-3.575432-69.451792-45.181015-109.478414-107.945501-118.598118-186.272427-8.852622-75.191516 12.134365-141.772934 62.569034-198.045565 46.886867-52.452629 113.492844-82.582857 182.797279-82.582857 69.718875 0 134.23526 28.816303 181.654246 81.245396 53.036937 58.410318 74.29203 127.644145 63.348794 205.850321-10.55438 75.702146-50.313919 136.325875-118.063953 180.317809-1.701758 1.070378-2.626827 3.184529-2.482541 5.154393 0.272199 2.115174 1.557472 3.842515 3.5038 4.498454 9.777691 3.430122 21.132296 7.658424 32.076556 12.815887 101.623515 47.418986 173.045171 125.235282 212.002438 231.456512 7.68503 21.011546 13.544481 43.99091 17.848507 70.424956 2.213411 13.204743-7.4159 26.943652-20.597107 29.325909-1.677199 0.268106-3.378957 0.534166-5.082762 0.534166l0 0c-12.620435 0-23.321148-8.461719-25.533536-20.085454-8.194636-44.259016-20.961404-81.513502-39.07904-113.734344-50.311873-89.466638-123.800607-146.126079-218.154555-168.596859-29.448706-7.003508-58.508555-10.553357-86.523609-10.553357-84.699054 0-162.102958 32.221866-229.973742 95.643314-52.792367 49.2681-86.911442 112.566752-101.378945 187.854459l-0.147356 1.070378c-1.287319 6.735401-2.479471 13.057387-6.517437 18.212804C45.69011 910.97276 38.371424 914.669966 30.297538 914.669966L30.297538 914.669966 30.297538 914.669966zM393.848555 140.876518c-109.963461 0-199.624527 91.045599-200.013383 202.932876-0.122797 54.180993 20.450774 105.175411 57.972343 143.475715 37.814234 38.568411 88.370677 59.846016 142.455479 59.991326 110.620423 0 200.135156-91.165326 200.282512-203.198935 0-111.76448-89.784886-202.932876-200.282512-203.199958L393.848555 140.877541 393.848555 140.876518 393.848555 140.876518zM996.006947 908.46873c-6.517437 0-12.642948-2.625804-17.191544-7.537673-4.840238-5.154393-7.175423-12.280698-6.66377-19.819394 3.91517-60.500932-9.629311-116.262934-40.368406-165.531034-41.97295-67.23838-102.036931-109.527532-178.663122-125.772518-7.440459-1.579985-14.858406-2.505054-22.031782-3.431146-4.547573-0.534166-8.973372-1.069355-13.544481-1.843998-10.822486-1.727341-19.285229-10.579963-20.060895-21.134343-0.925069-12.157901 5.471618-22.346961 16.292058-25.897833 34.387181-11.382235 64.22372-32.781614 88.589664-63.542198 24.902156-31.468712 39.1036-67.385736 41.973974-106.755396 4.304026-56.686047-12.109806-106.900705-48.612161-149.019988-27.747971-31.978319-63.057151-53.109592-105.150852-62.885236-17.727757-4.110621-35.698037-4.76656-52.525284-4.76656-11.332093 0-20.450774-7.393387-22.788006-18.505469-1.457188-6.736425 0-13.204743 3.89368-18.361183 4.301979-5.665023 11.329023-9.118682 19.306718-9.362228 3.64604-0.145309 7.14984-0.267083 10.797927-0.267083 33.096792 0 64.368006 6.468318 92.917226 19.284205 76.212776 34.215266 124.047224 91.557252 142.284587 170.543188 19.284205 83.772962-0.778736 159.475108-59.676148 225.13248-3.647063 4.084015-7.684006 7.928576-11.719926 11.770068-2.993171 2.749624-5.861498 5.39794-8.996908 8.170077l-4.426823 3.963265c-1.435699 1.339508-2.091638 3.184529-1.703805 5.154393 0.38988 1.851161 1.703805 3.431146 3.52836 4.111644 20.182668 7.124258 37.521568 14.783705 52.767807 23.514553 64.24828 36.453237 111.545492 89.296769 140.995221 157.217694 19.673062 45.717228 28.28316 95.641267 25.532513 148.749836-0.777713 14.275121-7.414877 23.661909-18.74697 26.28669C999.922117 908.200624 997.977835 908.46873 996.006947 908.46873L996.006947 908.46873 996.006947 908.46873zM398.810566 907.545708c-32.706913-33.024138-65.025992-65.125253-92.38306-92.361571-0.147356-0.12075-0.147356-0.12075-0.267083-0.12075 25.022906-42.945091 50.04479-86.012979 74.92341-128.933511l17.726733-30.396287 47.177486 81.391728c14.980179 25.874297 29.959336 51.652404 45.084824 77.403904 0.121773 0.268106 0.267083 0.413416 0.267083 0.534166l-0.388856 0.38988C462.279087 844.00351 432.173418 874.132714 398.810566 907.545708L398.810566 907.545708 398.810566 907.545708zM398.810566 907.545708" p-id="8242" fill="#d82930"></path></svg>