<?xml version="1.0" standalone="no"?><!DOCTYPE svg PUBLIC "-//W3C//DTD SVG 1.1//EN" "http://www.w3.org/Graphics/SVG/1.1/DTD/svg11.dtd"><svg t="1566492770485" class="icon" viewBox="0 0 1024 1024" version="1.1" xmlns="http://www.w3.org/2000/svg" p-id="53223" xmlns:xlink="http://www.w3.org/1999/xlink" width="500" height="500"><defs><style type="text/css"></style></defs><path d="M394.4 822.4C179.2 822.4 4 648 4 433.6S179.2 44.8 394.4 44.8C520 44.8 639.2 105.6 712 207.2c4.8 7.2 3.2 16.8-4 22.4-7.2 4.8-16.8 3.2-22.4-4-67.2-93.6-176-149.6-292-149.6-197.6 0-358.4 160-358.4 356.8s160.8 356.8 358.4 356.8c112 0 216-51.2 284.8-140 5.6-7.2 15.2-8 22.4-3.2 7.2 5.6 8 15.2 3.2 22.4-74.4 98.4-187.2 153.6-309.6 153.6z" p-id="53224" fill="#ffffff"></path><path d="M350.4 609.6v-31.2c-39.2-4-73.6-19.2-104.8-46.4l31.2-36.8c24 20.8 48.8 32.8 73.6 36.8V449.6c-32-8-56-17.6-70.4-30.4s-22.4-31.2-22.4-55.2 8.8-44.8 25.6-60c17.6-15.2 39.2-24 67.2-25.6v-21.6h27.2v21.6c31.2 2.4 60.8 12.8 88.8 32l-28 39.2c-18.4-13.6-39.2-21.6-60.8-24.8v80h1.6c32.8 8 56.8 17.6 72 31.2 15.2 12.8 23.2 32 23.2 56.8 0 24.8-8.8 44.8-26.4 60.8-17.6 15.2-40.8 24-69.6 25.6v30.4h-28zM320 335.2c-7.2 6.4-11.2 14.4-11.2 24s3.2 16.8 8.8 22.4c5.6 5.6 16.8 11.2 32.8 16v-73.6c-12.8 1.6-23.2 5.6-30.4 11.2z m89.6 186.4c8-6.4 12-14.4 12-24.8 0-9.6-3.2-17.6-9.6-23.2-6.4-5.6-17.6-11.2-35.2-16v76c14.4-1.6 24.8-5.6 32.8-12zM817.6 779.2H720c-8.8 0-16-7.2-16-16V668.8c0-4.8 2.4-9.6 5.6-12.8 4-3.2 8.8-4 13.6-3.2 30.4 6.4 60.8 6.4 91.2 0 4.8-0.8 9.6 0 13.6 3.2s5.6 8 5.6 12.8v94.4c0 8.8-6.4 16-16 16z m-81.6-32h65.6V688c-21.6 3.2-44 3.2-65.6 0v59.2z" p-id="53225" fill="#ffffff"></path><path d="M768.8 689.6c-17.6 0-35.2-1.6-52-5.6-5.6-0.8-10.4-2.4-16-4-4.8-1.6-9.6-3.2-15.2-4.8-100.8-35.2-168-129.6-168-236 0-109.6 70.4-205.6 176-238.4 24-7.2 49.6-11.2 74.4-11.2 138.4 0 251.2 112 251.2 249.6 0 111.2-75.2 210.4-183.2 240-4.8 1.6-10.4 2.4-16 4-16 4.8-33.6 6.4-51.2 6.4z m0-467.2c-22.4 0-44 3.2-65.6 9.6-92 28.8-153.6 112-153.6 208 0 92 59.2 175.2 146.4 205.6 4 1.6 8.8 3.2 12.8 4 4.8 1.6 8.8 2.4 13.6 3.2 30.4 6.4 60.8 6.4 91.2 0 4.8-0.8 9.6-2.4 13.6-3.2 93.6-26.4 159.2-112.8 159.2-209.6 1.6-120-96.8-217.6-217.6-217.6z" p-id="53226" fill="#ffffff"></path><path d="M768.8 610.4c-13.6 0-26.4-1.6-40-4.8l-1.6-0.8c-1.6 0-3.2-0.8-4.8-0.8-73.6-20.8-124.8-88-124.8-164 0-80.8 57.6-151.2 136.8-167.2 11.2-2.4 23.2-3.2 34.4-3.2 94.4 0 171.2 76.8 171.2 170.4 0 76-51.2 143.2-124.8 164-14.4 4-30.4 6.4-46.4 6.4z m0-324.8c-10.4 0-20.8 0.8-31.2 3.2-72 14.4-124 78.4-124 151.2 0 68.8 46.4 130.4 113.6 148.8 1.6 0 2.4 0.8 4 0.8l1.6 0.8c26.4 6.4 52.8 5.6 78.4-1.6 66.4-18.4 113.6-80 113.6-148.8 0-85.6-70.4-154.4-156-154.4zM848.8 979.2h-160c-8.8 0-16-7.2-16-16v-200c0-8.8 7.2-16 16-16h160c8.8 0 16 7.2 16 16v200c0 8.8-7.2 16-16 16z m-143.2-32h128v-168h-128v168z" p-id="53227" fill="#ffffff"></path></svg>