<?xml version="1.0" standalone="no"?><!DOCTYPE svg PUBLIC "-//W3C//DTD SVG 1.1//EN" "http://www.w3.org/Graphics/SVG/1.1/DTD/svg11.dtd"><svg t="1566492632787" class="icon" viewBox="0 0 1024 1024" version="1.1" xmlns="http://www.w3.org/2000/svg" p-id="11004" xmlns:xlink="http://www.w3.org/1999/xlink" width="500" height="500"><defs><style type="text/css"></style></defs><path d="M834.4 1020H189.6c-8.8 0-16-7.2-16-16V177.6c0-8.8 7.2-16 16-16h156.8c8.8 0 16 7.2 16 16v44.8h298.4v-44.8c0-8.8 7.2-16 16-16h156.8c8.8 0 16 7.2 16 16v826.4c0.8 8.8-6.4 16-15.2 16z m-628.8-32h612V193.6H692.8v44.8c0 8.8-7.2 16-16 16H347.2c-8.8 0-16-7.2-16-16v-44.8H205.6v794.4z" p-id="11005" fill="#ffffff"></path><path d="M676.8 254.4H347.2c-8.8 0-16-7.2-16-16V114.4c0-8.8 7.2-16 16-16h330.4c8.8 0 16 7.2 16 16v124c-0.8 8.8-8 16-16.8 16z m-313.6-32h298.4V130.4H363.2v92z" p-id="11006" fill="#ffffff"></path><path d="M562.4 130.4H461.6c-8.8 0-16-7.2-16-16V64.8c0-33.6 27.2-60.8 60.8-60.8h11.2c33.6 0 60.8 27.2 60.8 60.8v49.6c0 8.8-7.2 16-16 16z m-84.8-32h68.8V64.8c0-16-12.8-28.8-28.8-28.8h-11.2c-16 0-28.8 12.8-28.8 28.8v33.6zM386.4 472H296c-4.8 0-8-3.2-8-8V372.8c0-4.8 3.2-8 8-8h91.2c4.8 0 8 3.2 8 8V464c-0.8 4.8-4 8-8.8 8zM304 456h75.2v-75.2H304V456zM386.4 664H296c-4.8 0-8-3.2-8-8V564.8c0-4.8 3.2-8 8-8h91.2c4.8 0 8 3.2 8 8V656c-0.8 4.8-4 8-8.8 8zM304 648h75.2v-75.2H304V648zM386.4 856H296c-4.8 0-8-3.2-8-8V756.8c0-4.8 3.2-8 8-8h91.2c4.8 0 8 3.2 8 8V848c-0.8 4-4 8-8.8 8zM304 840h75.2v-75.2H304v75.2zM728 472H457.6c-4.8 0-8-3.2-8-8s3.2-8 8-8H728c4.8 0 8 3.2 8 8s-3.2 8-8 8zM728 664H457.6c-4.8 0-8-3.2-8-8s3.2-8 8-8H728c4.8 0 8 3.2 8 8s-3.2 8-8 8zM728 856H457.6c-4.8 0-8-3.2-8-8s3.2-8 8-8H728c4.8 0 8 3.2 8 8 0 4-3.2 8-8 8z" p-id="11007" fill="#ffffff"></path></svg>