<?xml version="1.0" standalone="no"?><!DOCTYPE svg PUBLIC "-//W3C//DTD SVG 1.1//EN" "http://www.w3.org/Graphics/SVG/1.1/DTD/svg11.dtd"><svg t="1586108153274" class="icon" viewBox="0 0 1024 1024" version="1.1" xmlns="http://www.w3.org/2000/svg" p-id="4283" xmlns:xlink="http://www.w3.org/1999/xlink" width="500" height="500"><defs><style type="text/css"></style></defs><path d="M164.992 363.370667L462.656 65.706667l257.898667 69.12a10.666667 10.666667 0 0 1 4.778666 17.834666L594.24 283.733333a117.333333 117.333333 0 0 0 165.930667 165.930667l131.093333-131.093333a10.666667 10.666667 0 0 1 17.856 4.778666l69.098667 257.898667L680.533333 878.912l-204.373333-54.741333-93.141333 93.141333a181.333333 181.333333 0 1 1-256.426667-256.426667l93.141333-93.162666-54.762666-204.373334z m449.770667-190.656l-132.970667-35.626667L236.373333 382.506667l54.762667 204.373333-119.274667 119.253333a117.333333 117.333333 0 1 0 165.930667 165.973334l119.274667-119.296 204.373333 54.741333L906.816 562.133333l-35.626667-132.970666-65.792 65.770666a181.333333 181.333333 0 1 1-256.426666-256.426666l65.770666-65.792zM224.64 819.264a42.666667 42.666667 0 1 1 60.330667-60.330667 42.666667 42.666667 0 0 1-60.330667 60.330667z" p-id="4284" fill="#ffffff"></path></svg>