<?xml version="1.0" standalone="no"?><!DOCTYPE svg PUBLIC "-//W3C//DTD SVG 1.1//EN" "http://www.w3.org/Graphics/SVG/1.1/DTD/svg11.dtd"><svg t="1586109112601" class="icon" viewBox="0 0 1024 1024" version="1.1" xmlns="http://www.w3.org/2000/svg" p-id="2232" xmlns:xlink="http://www.w3.org/1999/xlink" width="500" height="500"><defs><style type="text/css"></style></defs><path d="M512.128643 566.030151a283.015075 283.015075 0 0 1 0-566.030151h283.015076v283.015075a283.015075 283.015075 0 0 1-283.015076 283.015076z m0-520.233166A236.960804 236.960804 0 1 0 749.089447 283.015075V46.311558zM226.283417 1024A169.294472 169.294472 0 0 1 57.246231 854.962814v-28.558794a197.59598 197.59598 0 0 1 197.59598-197.338693h514.572864a197.59598 197.59598 0 0 1 197.338694 197.338693v28.558794a169.037186 169.037186 0 0 1-168.7799 169.037186z m28.558794-348.623116a151.027136 151.027136 0 0 0-151.284422 151.027136v28.558794A122.982915 122.982915 0 0 0 226.283417 977.688442h571.690452a122.725628 122.725628 0 0 0 122.468342-122.725628v-28.558794a151.027136 151.027136 0 0 0-151.027136-151.027136z" fill="#ff5643" p-id="2233"></path></svg>