<?xml version="1.0" standalone="no"?><!DOCTYPE svg PUBLIC "-//W3C//DTD SVG 1.1//EN" "http://www.w3.org/Graphics/SVG/1.1/DTD/svg11.dtd"><svg t="1566492358145" class="icon" viewBox="0 0 1024 1024" version="1.1" xmlns="http://www.w3.org/2000/svg" p-id="10816" xmlns:xlink="http://www.w3.org/1999/xlink" width="500" height="500"><defs><style type="text/css"></style></defs><path d="M613.6 240H410.4c-26.4 0-47.2-21.6-47.2-47.2 0-23.2 16.8-43.2 39.2-47.2 2.4-0.8 5.6-0.8 8-0.8h203.2c2.4 0 5.6 0 8 0.8 23.2 4 39.2 23.2 39.2 47.2 0 26.4-20.8 47.2-47.2 47.2z m-203.2-62.4H408c-7.2 1.6-12.8 8-12.8 15.2 0 8.8 7.2 15.2 15.2 15.2h203.2c8.8 0 15.2-7.2 15.2-15.2 0-8-5.6-14.4-12.8-15.2H410.4z" p-id="10817" fill="#ffffff"></path><path d="M482.4 177.6h-76c-4.8 0-8.8-1.6-12-5.6-3.2-3.2-4.8-8-4-12.8 2.4-16 5.6-31.2 10.4-44.8 12-37.6 42.4-65.6 80.8-76 5.6-1.6 12 0 16 4.8s4.8 11.2 2.4 16.8c-0.8 1.6-0.8 3.2-0.8 5.6v96c-0.8 8.8-8 16-16.8 16z m-56.8-32h41.6V78.4c-16.8 10.4-29.6 26.4-36 45.6-2.4 6.4-4 13.6-5.6 21.6zM617.6 177.6h-76c-8.8 0-16-7.2-16-16v-96c0-1.6-0.8-4-0.8-5.6-2.4-5.6-1.6-12 2.4-16.8 4-4.8 10.4-6.4 16-4.8 38.4 10.4 68 39.2 80.8 76 4.8 14.4 8 29.6 10.4 45.6 0.8 4.8-0.8 8.8-4 12.8-4 2.4-8 4.8-12.8 4.8z m-60-32h41.6c-1.6-7.2-3.2-14.4-5.6-21.6-6.4-19.2-19.2-35.2-36-45.6v67.2z" p-id="10818" fill="#ffffff"></path><path d="M541.6 177.6h-58.4c-8.8 0-16-7.2-16-16v-0.8c0-8.8 7.2-16 16-16h58.4c8.8 0 16 7.2 16 16s-7.2 16.8-16 16.8z" p-id="10819" fill="#ffffff"></path><path d="M541.6 177.6h-58.4c-8.8 0-16-7.2-16-16v-96c0-6.4 1.6-12.8 4-18.4 7.2-16 23.2-26.4 41.6-26.4 17.6 0 33.6 10.4 41.6 26.4 2.4 5.6 4 12 4 18.4v96c-0.8 8.8-8 16-16.8 16z m-43.2-32h26.4v-80c0-1.6-0.8-4-0.8-5.6-2.4-4.8-7.2-8-12-8-5.6 0-10.4 3.2-12 8-0.8 1.6-0.8 3.2-0.8 5.6v80zM512 376c-66.4 0-120.8-56-120.8-124 0-10.4 1.6-20.8 4-31.2 1.6-7.2 8-12 15.2-12h202.4c7.2 0 13.6 4.8 15.2 12 2.4 10.4 4 20.8 4 31.2C632.8 320 578.4 376 512 376zM424 240c-0.8 4-0.8 8-0.8 11.2 0 51.2 40 92 88.8 92s88.8-41.6 88.8-92c0-4 0-8-0.8-11.2H424zM911.2 1004c-48.8 0-90.4-29.6-96.8-71.2-3.2-23.2 4-47.2 22.4-66.4 16.8-18.4 40.8-30.4 68-34.4 26.4-4 53.6 0.8 75.2 12.8 22.4 12.8 36.8 33.6 40.8 56.8 7.2 47.2-33.6 92-89.6 100.8-8 1.6-14.4 1.6-20 1.6z m11.2-141.6c-4.8 0-9.6 0-13.6 0.8-20 3.2-36.8 12-48.8 24.8-11.2 12-16 26.4-13.6 40 4.8 29.6 40 48.8 79.2 43.2 39.2-5.6 67.2-34.4 63.2-64.8-2.4-13.6-11.2-25.6-24.8-33.6-12.8-7.2-27.2-10.4-41.6-10.4zM112.8 1004c-6.4 0-12-0.8-18.4-1.6-56.8-8.8-96.8-53.6-89.6-100.8 3.2-23.2 17.6-44 40.8-56.8 21.6-12.8 48-16.8 75.2-12.8 26.4 4 51.2 16 68 34.4 17.6 19.2 25.6 42.4 22.4 66.4-7.2 41.6-48.8 71.2-98.4 71.2z m-11.2-141.6c-14.4 0-28.8 3.2-40 10.4-14.4 8-23.2 20-24.8 33.6-4.8 29.6 24 58.4 63.2 64.8 39.2 5.6 74.4-13.6 79.2-43.2 2.4-13.6-3.2-28-13.6-40-12-12.8-29.6-21.6-48.8-24.8-5.6-0.8-10.4-0.8-15.2-0.8zM716 521.6h-408c-6.4 0-12-4-14.4-9.6-2.4-5.6-1.6-12.8 2.4-16.8 0.8-0.8 1.6-1.6 1.6-2.4 0.8-1.6 2.4-3.2 3.2-4 20.8-23.2 43.2-42.4 67.2-57.6 44.8-29.6 93.6-44 144-44 50.4 0 98.4 15.2 144 44 24 15.2 46.4 35.2 67.2 57.6 1.6 1.6 2.4 2.4 3.2 4 0.8 0.8 1.6 1.6 1.6 2.4 4 4.8 4.8 11.2 2.4 16.8-2.4 6.4-8 9.6-14.4 9.6z m-371.2-32h333.6c-12.8-12-26.4-22.4-40.8-32-40-26.4-82.4-39.2-126.4-39.2S425.6 432 385.6 457.6c-13.6 9.6-27.2 20-40.8 32z" p-id="10820" fill="#ffffff"></path><path d="M824 911.2H200c-4.8 0-9.6-2.4-12-5.6-3.2-4-4-8.8-3.2-13.6l68-354.4v-4c0-2.4 0.8-4.8 2.4-7.2 6.4-10.4 13.6-20.8 20.8-30.4 3.2-4 8-6.4 12.8-6.4h448c4.8 0 9.6 2.4 12.8 6.4 8 9.6 14.4 20 20.8 30.4 1.6 2.4 2.4 4.8 2.4 7.2v4l28 146.4 40 208.8c0.8 4.8 0 9.6-3.2 13.6-4 2.4-8.8 4.8-13.6 4.8z m-604.8-32h585.6l-64.8-336v-0.8-2.4c-4-5.6-8-12-12-17.6H296c-4 5.6-8 11.2-12 17.6v3.2l-64.8 336z" p-id="10821" fill="#ffffff"></path><path d="M829.6 946.4c-8 0-14.4-5.6-16-13.6l-12.8-84-60.8-310.4c-2.4-13.6-0.8-25.6 4-38.4 12-32.8 45.6-57.6 85.6-63.2 56.8-8.8 108 23.2 115.2 69.6l72.8 390.4c0 1.6 0.8 3.2 0.8 4.8 1.6 8.8-4.8 16.8-12.8 18.4-8.8 1.6-16.8-4-18.4-12.8l-0.8-4c-3.2-12.8-11.2-23.2-24.8-31.2-15.2-8.8-34.4-12-54.4-8.8-20 3.2-36.8 12-48.8 24.8-11.2 12-16 26.4-14.4 40 1.6 8.8-4.8 16.8-13.6 18.4h-0.8z m19.2-479.2c-4.8 0-9.6 0-13.6 0.8-28.8 4-52 20.8-60.8 43.2-2.4 7.2-3.2 14.4-2.4 21.6l60.8 310.4 3.2 23.2c16.8-18.4 40.8-30.4 67.2-34.4 25.6-4 51.2 0 72 11.2L913.6 512v-0.8c-4-25.6-31.2-44-64.8-44zM194.4 946.4H192c-8.8-1.6-14.4-9.6-13.6-18.4 2.4-13.6-3.2-28-13.6-40-12-12.8-29.6-21.6-48.8-24.8-37.6-5.6-72 12-78.4 40l-0.8 4c-1.6 8.8-9.6 14.4-18.4 12.8-8.8-1.6-14.4-9.6-12.8-18.4 0-1.6 0.8-3.2 0.8-4.8l72.8-390.4c7.2-46.4 59.2-77.6 115.2-69.6 40 5.6 73.6 30.4 85.6 63.2 4.8 12.8 6.4 24.8 4 37.6l-61.6 312-12.8 83.2c-0.8 8-7.2 13.6-15.2 13.6z m-92.8-116c6.4 0 12 0.8 18.4 1.6 26.4 4 50.4 16 67.2 34.4l3.2-22.4 61.6-312c0.8-6.4 0-13.6-2.4-20.8-8-21.6-32-38.4-60.8-43.2-39.2-5.6-74.4 13.6-79.2 43.2L48 843.2c16-8 34.4-12.8 53.6-12.8z" p-id="10822" fill="#ffffff"></path><path d="M898.4 992.8c-7.2 0-14.4-1.6-20.8-4-4-1.6-6.4-6.4-4.8-10.4 1.6-4 6.4-6.4 10.4-4.8 18.4 7.2 39.2 0.8 53.6-16 8.8-14.4 12.8-36-0.8-50.4-4-4-10.4-5.6-16-4.8-3.2 0.8-8 2.4-10.4 7.2-0.8 2.4-0.8 3.2-0.8 4h0.8c4.8-0.8 8 2.4 8.8 7.2 0.8 4-2.4 8-7.2 8.8-6.4 0.8-12.8-1.6-16-7.2-4-5.6-4-13.6 0-20.8 4.8-8 12.8-13.6 22.4-15.2 10.4-1.6 21.6 2.4 29.6 9.6 20 20.8 15.2 51.2 3.2 70.4l-0.8 0.8c-13.6 16.8-32 25.6-51.2 25.6zM125.6 994.4c-18.4 0-37.6-8.8-51.2-24.8l-0.8-0.8c-12.8-20-16.8-49.6 2.4-70.4 8-7.2 19.2-11.2 29.6-9.6 9.6 1.6 17.6 6.4 22.4 14.4 4 7.2 4 15.2 0 20.8-3.2 4.8-9.6 8-16 7.2-4-0.8-7.2-4.8-7.2-8.8 0.8-4 4.8-7.2 8.8-7.2h0.8s0.8-1.6-0.8-4c-2.4-4.8-7.2-6.4-10.4-6.4-5.6-0.8-12 0.8-16 4.8-12.8 13.6-9.6 35.2-0.8 49.6 14.4 16.8 35.2 23.2 53.6 16 4-1.6 8.8 0.8 10.4 4.8 1.6 4-0.8 8.8-4.8 10.4-5.6 2.4-12.8 4-20 4zM716 784c-4 0-7.2-2.4-8-6.4L664 568.8H562.4c-4.8 0-8-3.2-8-8s3.2-8 8-8h108.8c4 0 7.2 2.4 8 6.4l44.8 215.2c0.8 4-1.6 8.8-6.4 9.6h-1.6zM692.8 840.8H291.2c-2.4 0-4.8-0.8-6.4-3.2-1.6-1.6-2.4-4-1.6-6.4l56-264.8c0.8-4 4.8-7.2 9.6-6.4 4 0.8 7.2 4.8 6.4 9.6L301.6 824h391.2c4.8 0 8 3.2 8 8 0 5.6-4 8.8-8 8.8z" p-id="10823" fill="#ffffff"></path><path d="M639.2 684H512c-4.8 0-8-3.2-8-8s3.2-8 8-8h127.2c4.8 0 8 3.2 8 8s-3.2 8-8 8zM400 772h-2.4c-4-1.6-6.4-5.6-5.6-9.6l25.6-88c1.6-4 5.6-6.4 9.6-5.6 4 1.6 6.4 5.6 5.6 9.6l-25.6 88c-0.8 3.2-4 5.6-7.2 5.6z" p-id="10824" fill="#ffffff"></path></svg>