<?xml version="1.0" standalone="no"?><!DOCTYPE svg PUBLIC "-//W3C//DTD SVG 1.1//EN" "http://www.w3.org/Graphics/SVG/1.1/DTD/svg11.dtd"><svg t="1566492904784" class="icon" viewBox="0 0 1024 1024" version="1.1" xmlns="http://www.w3.org/2000/svg" p-id="53407" xmlns:xlink="http://www.w3.org/1999/xlink" width="500" height="500"><defs><style type="text/css"></style></defs><path d="M764 670.4h-69.6c-32.8 0-60-27.2-60-60s27.2-60 60-60h69.6c32.8 0 60 27.2 60 60s-27.2 60-60 60z m-69.6-88c-15.2 0-28 12.8-28 28s12.8 28 28 28h69.6c15.2 0 28-12.8 28-28s-12.8-28-28-28h-69.6z" p-id="53408" fill="#ffffff"></path><path d="M764 757.6h-69.6c-32.8 0-60-27.2-60-60s27.2-60 60-60h69.6c32.8 0 60 27.2 60 60s-27.2 60-60 60z m-69.6-87.2c-15.2 0-28 12.8-28 28s12.8 28 28 28h69.6c15.2 0 28-12.8 28-28s-12.8-28-28-28h-69.6z" p-id="53409" fill="#ffffff"></path><path d="M764 844.8h-69.6c-32.8 0-60-27.2-60-60s27.2-60 60-60h69.6c32.8 0 60 27.2 60 60 0 33.6-27.2 60-60 60z m-69.6-87.2c-15.2 0-28 12.8-28 28s12.8 28 28 28h69.6c15.2 0 28-12.8 28-28s-12.8-28-28-28h-69.6z" p-id="53410" fill="#ffffff"></path><path d="M764 932.8h-69.6c-32.8 0-60-27.2-60-60s27.2-60 60-60h69.6c32.8 0 60 27.2 60 60s-27.2 60-60 60z m-69.6-88c-15.2 0-28 12.8-28 28s12.8 28 28 28h69.6c15.2 0 28-12.8 28-28s-12.8-28-28-28h-69.6zM564 927.2H320c-8.8 0-16-7.2-16-16s7.2-16 16-16h228V602.4c-5.6-0.8-10.4-4.8-12-11.2-2.4-8.8 1.6-17.6 10.4-20l12.8-4c4.8-1.6 10.4-0.8 14.4 2.4s6.4 8 6.4 12.8V912c0 8-7.2 15.2-16 15.2z" p-id="53411" fill="#ffffff"></path><path d="M320 919.2c-4.8 0-8-3.2-8-8V566.4c0-4.8 3.2-8 8-8s8 3.2 8 8v344.8c0 4.8-3.2 8-8 8z" p-id="53412" fill="#ffffff"></path><path d="M320 582.4c-6.4 0-12.8-4-15.2-10.4-3.2-8 0.8-17.6 9.6-20.8l195.2-72c8-3.2 17.6 0.8 20.8 9.6 3.2 8-0.8 17.6-9.6 20.8l-195.2 72c-1.6 0.8-4 0.8-5.6 0.8z" p-id="53413" fill="#ffffff"></path><path d="M651.2 1020c-56.8 0-103.2-46.4-103.2-103.2V582.4c0-7.2 4.8-12.8 11.2-15.2l61.6-19.2c17.6-5.6 27.2-24.8 21.6-42.4-2.4-8.8-8.8-15.2-16.8-19.2s-16.8-4.8-25.6-2.4l-31.2 9.6c-4.8 1.6-10.4 0.8-14.4-2.4s-6.4-8-6.4-12.8v-57.6c-80-39.2-131.2-120.8-131.2-210.4 0-84.8 45.6-163.2 120-204.8 4.8-2.4 11.2-2.4 16 0 4.8 3.2 8 8 8 13.6v189.6l90.4 20.8 90.4-20.8V19.2c0-5.6 3.2-11.2 8-13.6 4.8-3.2 11.2-3.2 16 0 73.6 41.6 120 120 120 204.8 0 89.6-51.2 171.2-131.2 210.4v145.6c0 4-1.6 8-4.8 11.2-3.2 3.2-7.2 4.8-11.2 4.8h-43.2c-15.2 0-28 12.8-28 28s12.8 28 28 28c8.8 0 16 7.2 16 16s-7.2 16-16 16c-15.2 0-28 12.8-28 28s12.8 28 28 28c8.8 0 16 7.2 16 16s-7.2 16-16 16c-15.2 0-28 12.8-28 28s12.8 28 28 28c8.8 0 16 7.2 16 16s-7.2 16-16 16c-15.2 0-28 12.8-28 28s12.8 28 28 28h44c8.8 0 16 7.2 16 16 0 27.2-10.4 53.6-30.4 72.8-20 18.4-46.4 28.8-73.6 28.8z m-71.2-426.4v323.2c0 39.2 32 71.2 71.2 71.2 19.2 0 36.8-7.2 50.4-20.8 9.6-9.6 16-21.6 19.2-34.4h-25.6c-32.8 0-60-27.2-60-60 0-17.6 7.2-32.8 19.2-44-12-11.2-19.2-26.4-19.2-44s7.2-32.8 19.2-44c-12-11.2-19.2-26.4-19.2-44s7.2-32.8 19.2-44c-12-11.2-19.2-26.4-19.2-44 0-32.8 27.2-60 60-60h27.2V409.6c0-6.4 4-12 9.6-14.4 73.6-32 121.6-104.8 121.6-185.6 0-63.2-30.4-123.2-80-160.8v172.8c0 7.2-4.8 13.6-12.8 16l-106.4 24.8c-2.4 0.8-4.8 0.8-7.2 0l-106.4-24.8c-7.2-1.6-12.8-8-12.8-15.2V49.6c-49.6 38.4-80 97.6-79.2 160.8 0 80.8 48 153.6 121.6 185.6 5.6 2.4 9.6 8 9.6 14.4V456l10.4-3.2c16.8-5.6 34.4-4 49.6 4 15.2 8 27.2 21.6 32 38.4 11.2 34.4-8 71.2-42.4 82.4l-49.6 16z" p-id="53414" fill="#ffffff"></path><path d="M515.2 510.4c-6.4 0-12.8-4-15.2-10.4-3.2-8 0.8-16.8 8-20 2.4-0.8 4.8-2.4 7.2-3.2l43.2-13.6c4.8-1.6 10.4-0.8 14.4 2.4s6.4 8 6.4 12.8c0 7.2-4.8 12.8-11.2 15.2l-48.8 16c-0.8 0-2.4 0.8-4 0.8z" p-id="53415" fill="#ffffff"></path><path d="M504 618.4c-6.4 0-12.8-4-15.2-10.4-3.2-8 1.6-17.6 9.6-20l60-20.8 61.6-19.2c17.6-5.6 27.2-24.8 21.6-42.4-2.4-8.8-8.8-15.2-16.8-19.2s-16.8-4.8-25.6-2.4l-29.6 9.6c-0.8 0-0.8 0-1.6 0.8l-48.8 16c-8.8 2.4-17.6-1.6-20-10.4-2.4-8.8 1.6-17.6 10.4-20l47.2-15.2c0.8 0 0.8-0.8 1.6-0.8l31.2-9.6c16.8-5.6 34.4-4 49.6 4 15.2 8 27.2 21.6 32 38.4 11.2 34.4-8 71.2-42.4 82.4l-74.4 24-46.4 16c-0.8-0.8-2.4-0.8-4-0.8zM320 927.2H154.4c-8.8 0-16-7.2-16-16V566.4c0-8.8 7.2-16 16-16H320c8.8 0 16 7.2 16 16s-7.2 16-16 16H170.4v312.8H320c8.8 0 16 7.2 16 16s-7.2 16-16 16z" p-id="53416" fill="#ffffff"></path></svg>