<?xml version="1.0" standalone="no"?><!DOCTYPE svg PUBLIC "-//W3C//DTD SVG 1.1//EN" "http://www.w3.org/Graphics/SVG/1.1/DTD/svg11.dtd"><svg t="1585455822793" class="icon" viewBox="0 0 1161 1024" version="1.1" xmlns="http://www.w3.org/2000/svg" p-id="11467" xmlns:xlink="http://www.w3.org/1999/xlink" width="566.89453125" height="500"><defs><style type="text/css"></style></defs><path d="M1159.024187 374.978414v-68.177894a34.088947 34.088947 0 0 0-3.728478-15.180234L1018.939922 18.908713a34.088947 34.088947 0 0 0-30.360468-18.908713H170.444733a34.088947 34.088947 0 0 0-30.360468 18.908713L3.728479 291.620286a33.822627 33.822627 0 0 0-3.728479 15.180234v68.177894a170.444733 170.444733 0 0 0 68.177893 136.355786v443.156307H34.088947a34.088947 34.088947 0 1 0 0 68.177894h1091.911573a34.088947 34.088947 0 1 0 0-68.177894H1091.911573v-442.091027a170.178414 170.178414 0 0 0 68.177894-136.355787z m-443.156307 103.598439a102.26684 102.26684 0 0 1-102.26684-102.26684V342.221066h204.53368v32.757348a102.26684 102.26684 0 0 1-102.26684 102.26684zM68.177893 374.978414v-34.088947h204.53368v34.088947a102.26684 102.26684 0 1 1-204.53368 0zM545.423147 68.177893v204.53368h-194.946164l51.13342-204.53368z m213.055917 0l51.13342 204.53368h-194.946164V68.177893zM341.954746 340.889467h204.533681v34.088947a102.26684 102.26684 0 0 1-204.533681 0v-34.088947z m545.423147 0H1091.911573v34.088947a102.26684 102.26684 0 1 1-204.53368 0v-34.088947z m183.494409-68.177894h-190.951366l-51.13342-204.53368h139.817946l102.26684 204.53368z m-878.855657-204.53368h139.817945l-51.13342 204.53368H89.749805l102.26684-204.53368zM136.888427 541.960988a170.444733 170.444733 0 0 0 170.444733-64.982054 170.178414 170.178414 0 0 0 272.711573 0 170.711053 170.711053 0 0 0 102.26684 64.715734v413.861119H136.355787V543.292588z m886.312613 412.529519H749.956827V543.292588A170.711053 170.711053 0 0 0 852.223667 478.576853a170.444733 170.444733 0 0 0 170.444734 64.982055v412.529519z" p-id="11468" fill="#ffffff"></path></svg>