<?xml version="1.0" standalone="no"?><!DOCTYPE svg PUBLIC "-//W3C//DTD SVG 1.1//EN" "http://www.w3.org/Graphics/SVG/1.1/DTD/svg11.dtd"><svg t="1585455719909" class="icon" viewBox="0 0 1422 1024" version="1.1" xmlns="http://www.w3.org/2000/svg" p-id="9340" xmlns:xlink="http://www.w3.org/1999/xlink" width="694.3359375" height="500"><defs><style type="text/css"></style></defs><path d="M699.505778 1024a512 512 0 1 0 0-1024 512 512 0 0 0 0 1024z m0-56.888889a455.111111 455.111111 0 1 1 0-910.222222 455.111111 455.111111 0 0 1 0 910.222222z" p-id="9341" fill="#ffffff"></path><path d="M500.394667 682.666667a142.222222 142.222222 0 1 0 0-284.444445 142.222222 142.222222 0 0 0 0 284.444445z m0-56.888889a85.333333 85.333333 0 1 1 0-170.666667 85.333333 85.333333 0 0 1 0 170.666667zM784.839111 341.333333a85.333333 85.333333 0 1 0 0-170.666666 85.333333 85.333333 0 0 0 0 170.666666z m0-56.888889a28.444444 28.444444 0 1 1 0-56.888888 28.444444 28.444444 0 0 1 0 56.888888zM941.283556 654.222222a71.111111 71.111111 0 1 0 0-142.222222 71.111111 71.111111 0 0 0 0 142.222222z m0-56.888889a14.222222 14.222222 0 1 1 0-28.444444 14.222222 14.222222 0 0 1 0 28.444444z" p-id="9342" fill="#ffffff"></path><path d="M158.890667 398.222222c-28.899556 26.737778-50.062222 45.511111-86.300445 87.722667C22.243556 544.597333-2.673778 608.483556 9.102222 655.644444c43.463111 174.250667 386.048 226.190222 765.724445 131.527112 379.562667-94.606222 657.692444-301.340444 614.229333-475.591112-12.629333-50.688-58.026667-101.603556-132.096-130.56-35.328-13.824-89.656889-24.120889-126.862222-24.120888 11.320889 12.686222 19.456 22.414222 24.462222 29.013333 4.096 5.404444 9.671111 13.767111 16.611556 25.031111 93.696 23.324444 150.186667 64.056889 162.702222 114.346667 32.540444 130.616889-220.842667 318.919111-572.871111 406.755555-352.028444 87.722667-664.120889 40.391111-696.718223-90.168889-12.174222-48.924444 18.204444-111.331556 86.129778-174.193777A584.419556 584.419556 0 0 1 158.890667 398.222222z" p-id="9343" fill="#ffffff"></path></svg>