<?xml version="1.0" standalone="no"?><!DOCTYPE svg PUBLIC "-//W3C//DTD SVG 1.1//EN" "http://www.w3.org/Graphics/SVG/1.1/DTD/svg11.dtd"><svg t="1585455568681" class="icon" viewBox="0 0 1025 1024" version="1.1" xmlns="http://www.w3.org/2000/svg" p-id="3781" xmlns:xlink="http://www.w3.org/1999/xlink" width="500.48828125" height="500"><defs><style type="text/css"></style></defs><path d="M778.506507 518.15015l116.34034-193.217217c6.662663-11.275275-1.537538-26.138138-14.862863-26.138138h-233.193193l-116.852853-194.754755c-3.587588-5.637638-9.225225-8.2002-14.862863-8.2002-5.637638 0-11.275275 2.562563-14.862863 8.2002l-116.852853 194.754755H149.653654c-13.325325 0-21.525526 14.35035-14.862863 26.138138L251.131131 518.15015l-116.34034 193.217217c-6.662663 11.275275 1.537538 26.138138 14.862863 26.138139h233.193193l116.852853 194.754754c3.587588 5.637638 9.225225 8.2002 14.862863 8.2002 5.637638 0 11.275275-2.562563 14.862862-8.2002l116.852853-194.754754h233.193193c13.325325 0 21.525526-14.35035 14.862863-26.138139l-115.827827-193.217217z m86.102102-193.217217l-101.477478 168.616617-101.477477-168.616617h202.954955z m-350.046046-195.267267l101.98999 169.641641H412.572573l101.98999-169.641641zM164.516517 324.932933h202.954954L265.993994 493.54955 164.516517 324.932933z m0 386.946947L265.993994 543.263263l101.477477 168.616617H164.516517z m350.046046 195.267267l-101.98999-169.641641h203.97998L514.562563 907.147147z m117.365365-195.267267H397.197197l-116.34034-193.72973 116.34034-193.72973h234.730731l116.34034 193.72973-116.34034 193.72973z m29.725726 0l101.477477-168.616617 101.477478 168.616617h-202.954955z" fill="#ffffff" p-id="3782"></path><path d="M606.814815 441.785786c-6.15015-3.075075-13.837838-0.512513-17.425426 5.637637L515.075075 594.514515 439.735736 445.373373c-3.075075-6.15015-10.762763-8.712713-17.425426-5.637637-6.15015 3.075075-8.712713 10.762763-5.637637 17.425425l85.589589 169.129129c1.025025 3.587588 3.075075 6.662663 6.662663 8.2002 2.05005 1.025025 3.587588 1.537538 5.637638 1.537538 4.612613 0 9.225225-2.562563 11.275275-7.175175l86.102102-170.154154c3.587588-6.15015 1.025025-13.837838-5.125125-16.912913z" fill="#ffffff" p-id="3783"></path></svg>