<?xml version="1.0" standalone="no"?><!DOCTYPE svg PUBLIC "-//W3C//DTD SVG 1.1//EN" "http://www.w3.org/Graphics/SVG/1.1/DTD/svg11.dtd"><svg t="1566055834488" class="icon" viewBox="0 0 1024 1024" version="1.1" xmlns="http://www.w3.org/2000/svg" p-id="5896" xmlns:xlink="http://www.w3.org/1999/xlink" width="500" height="500"><defs><style type="text/css"></style></defs><path d="M723.748 292.838c-1.649 118.267-92.764 217.017-211.38 225.311-117.252 8.197-223.728-80.814-238.397-196.997-14.97-118.62 66.903-225.802 181.99-250.179 116.486-24.683 230.667 54.38 260.895 166.283 4.926 18.212 6.636 36.782 6.892 55.582 0.46 32.989 51.66 33.035 51.2 0-1.633-117.13-73.14-217.523-181.694-260.014-108.14-42.347-235.673-3.968-308.751 83.989-74.86 90.096-82.432 219.545-23.209 319.62C321.06 537.417 440.52 584.813 553.82 564.06c128.66-23.562 219.346-143.396 221.128-271.222 0.46-33.029-50.74-32.988-51.2 0z m245.14 512.927c-1.659 86.16-69.504 154.066-155.678 155.725-86.196 1.659-154.128-72.028-155.74-155.725-1.66-86.2 72.043-154.127 155.74-155.74 86.185-1.659 154.07 72.08 155.678 155.74 0.635 32.973 51.835 33.034 51.2 0-2.201-114.227-92.641-204.733-206.878-206.94-114.253-2.207-204.8 96-206.94 206.94-2.202 114.253 96 204.785 206.94 206.925 114.237 2.202 204.738-96.015 206.878-206.925 0.635-33.034-50.565-32.973-51.2 0z" p-id="5897" fill="#ff5643"></path><path d="M80.486 989.624c1.142-143.529 74.24-276.362 195.37-353.592 139.381-88.868 320.414-82.268 457.092 8.223 27.623 18.283 53.228-26.076 25.841-44.211-150.948-99.943-347.786-104.27-503.065-11.746-140.309 83.61-225.147 239.1-226.438 401.326-0.26 33.03 50.94 33.004 51.2 0z m657.388-234.05c20.162 43.453 40.315 86.912 60.477 130.36 7.906 17.045 36.107 16.415 44.212 0l64.962-131.548c14.567-29.496-29.588-55.445-44.211-25.84L798.35 860.092h44.212c-20.163-43.453-40.315-86.912-60.478-130.36-13.885-29.926-58.01-3.901-44.211 25.84z" p-id="5898" fill="#ff5643"></path></svg>