<?xml version="1.0" encoding="UTF-8"?>
<svg xmlns="http://www.w3.org/2000/svg" xmlns:xlink="http://www.w3.org/1999/xlink" width="48px" height="48px" viewBox="0 0 48 48" version="1.1">
<g id="surface45974">
<path style=" stroke:none;fill-rule:nonzero;fill:rgb(70.196078%,89.803922%,98.823529%);fill-opacity:1;" d="M 25.0625 12 C 21.199219 12 18.0625 15.132812 18.0625 19 C 18.0625 22.867188 21.199219 26 25.0625 26 C 28.929688 26 32.0625 22.867188 32.0625 19 C 32.0625 15.132812 28.929688 12 25.0625 12 Z M 25.0625 12 "/>
<path style=" stroke:none;fill-rule:nonzero;fill:rgb(70.196078%,89.803922%,98.823529%);fill-opacity:1;" d="M 16.0625 16 C 12.75 16 10.0625 18.6875 10.0625 22 C 10.0625 25.3125 12.75 28 16.0625 28 C 19.378906 28 22.0625 25.3125 22.0625 22 C 22.0625 18.6875 19.378906 16 16.0625 16 Z M 20.0625 10 C 18.40625 10 17.0625 11.34375 17.0625 13 C 17.0625 14.65625 18.40625 16 20.0625 16 C 21.722656 16 23.0625 14.65625 23.0625 13 C 23.0625 11.34375 21.722656 10 20.0625 10 Z M 10.0625 6 C 8.960938 6 8.0625 6.894531 8.0625 8 C 8.0625 9.105469 8.960938 10 10.0625 10 C 11.167969 10 12.0625 9.105469 12.0625 8 C 12.0625 6.894531 11.167969 6 10.0625 6 Z M 10.0625 6 "/>
<path style=" stroke:none;fill-rule:nonzero;fill:rgb(40.784314%,62.352941%,21.960784%);fill-opacity:1;" d="M 11.0625 42 L 29.0625 42 L 33.0625 20 L 7.0625 20 Z M 11.0625 42 "/>
<path style=" stroke:none;fill-rule:nonzero;fill:rgb(100%,87.843137%,50.980392%);fill-opacity:1;" d="M 29.828125 26.949219 C 29.828125 26.949219 18.148438 30.523438 18.4375 38 C 18.597656 42.054688 24.4375 42 27.4375 42 C 30.4375 42 41.1875 42 41.1875 42 C 41.1875 42 33.828125 40.996094 34.023438 36 C 34.097656 34.023438 35.917969 32.121094 34.132812 29.113281 C 33.269531 27.65625 29.828125 26.949219 29.828125 26.949219 Z M 29.828125 26.949219 "/>
<path style=" stroke:none;fill-rule:nonzero;fill:rgb(100%,75.686275%,2.745098%);fill-opacity:1;" d="M 34.019531 36 C 34.097656 34.023438 36.136719 31.984375 34.132812 29.113281 C 33.8125 28.65625 33.53125 28.457031 33.53125 28.457031 C 33.53125 28.453125 31.4375 27.4375 31.4375 27.4375 L 30.84375 27.347656 C 30.84375 27.347656 23.4375 33 23.4375 38 C 23.4375 41 26.0625 42 29.0625 42 C 29.371094 42 41.1875 42 41.1875 42 C 41.1875 42 33.828125 40.996094 34.019531 36 Z M 34.019531 36 "/>
<path style=" stroke:none;fill-rule:nonzero;fill:rgb(27.058824%,35.294118%,39.215686%);fill-opacity:1;" d="M 7.382812 37.179688 L 20.722656 24.753906 C 21.140625 24.390625 21.179688 23.757812 20.816406 23.34375 C 20.453125 22.925781 19.820312 22.886719 19.40625 23.246094 L 6.0625 35.671875 Z M 7.382812 37.179688 "/>
<path style=" stroke:none;fill-rule:nonzero;fill:rgb(24.705882%,31.764706%,70.980392%);fill-opacity:1;" d="M 39.121094 6 L 29.828125 26.949219 L 33.535156 28.457031 L 42 6 Z M 39.121094 6 "/>
</g>
</svg>
