<?xml version="1.0" encoding="UTF-8"?>
<svg xmlns="http://www.w3.org/2000/svg" xmlns:xlink="http://www.w3.org/1999/xlink" width="48px" height="48px" viewBox="0 0 48 48" version="1.1">
<g id="surface43447">
<path style=" stroke:none;fill-rule:nonzero;fill:rgb(37.647059%,49.019608%,54.509804%);fill-opacity:1;" d="M 12.300781 40.800781 C 12.398438 40.699219 13.601562 39.398438 15.5 37.398438 C 18.300781 34.5 30.5 21.5 30.699219 21.300781 C 31.601562 20.398438 35.898438 23.699219 39.5 20.101562 C 41.800781 17.800781 42.601562 14.898438 41.601562 11.398438 L 37 16 C 37 16 35.300781 16 33.601562 14.398438 C 32 12.699219 32 11 32 11 L 36.601562 6.5 C 33.300781 5.5 30.101562 6.300781 27.800781 8.601562 C 24.300781 12.101562 27.398438 16.5 26.5 17.398438 C 26.300781 17.5 9.199219 33.800781 9 34 C 7.300781 35.601562 7.199219 35.699219 7.101562 35.699219 C 5.699219 37.199219 5.601562 39.601562 7 41 C 8.398438 42.398438 10.800781 42.300781 12.300781 40.800781 Z M 10 36.5 C 10.800781 36.5 11.5 37.199219 11.5 38 C 11.5 38.800781 10.800781 39.5 10 39.5 C 9.199219 39.5 8.5 38.800781 8.5 38 C 8.5 37.199219 9.101562 36.5 10 36.5 Z M 10 36.5 "/>
<path style=" stroke:none;fill-rule:nonzero;fill:rgb(69.019608%,74.509804%,77.254902%);fill-opacity:1;" d="M 40 37 L 14.5 11.699219 L 12 8 L 7.398438 6 L 6 7.398438 L 8 12 L 11.699219 14.5 L 37.199219 39.800781 Z M 40 37 "/>
<path style=" stroke:none;fill-rule:nonzero;fill:rgb(100%,75.686275%,2.745098%);fill-opacity:1;" d="M 26.5 20.800781 C 24.398438 15.800781 23.199219 18.5 20.800781 20.800781 C 18.5 23.101562 15.800781 24.300781 20.800781 26.5 C 25.699219 28.601562 31.101562 38.199219 33.199219 40.398438 C 35.300781 42.5 37.898438 42.699219 40.300781 40.398438 C 42.601562 38.101562 42.398438 35.5 40.300781 33.300781 C 38.199219 31.199219 28.601562 25.800781 26.5 20.800781 Z M 26.5 20.800781 "/>
<path style=" stroke:none;fill-rule:nonzero;fill:rgb(100%,59.607843%,0%);fill-opacity:1;" d="M 20.800781 20.800781 C 23.101562 18.5 24.300781 15.800781 26.5 20.800781 L 20.800781 26.5 C 15.898438 24.398438 18.5 23.199219 20.800781 20.800781 Z M 20.800781 20.800781 "/>
</g>
</svg>
