<?xml version="1.0" encoding="UTF-8"?>
<svg xmlns="http://www.w3.org/2000/svg" xmlns:xlink="http://www.w3.org/1999/xlink" width="48px" height="48px" viewBox="0 0 48 48" version="1.1">
<g id="surface30162">
<path style=" stroke:none;fill-rule:nonzero;fill:rgb(21.568627%,27.843137%,30.980392%);fill-opacity:1;" d="M 22.484375 27 L 18.832031 27 C 18.28125 27 17.832031 26.554688 17.832031 26 L 17.832031 21 C 17.832031 20.460938 18.261719 20.019531 18.800781 20 L 23.96875 19.835938 C 24.394531 19.796875 24.753906 20.058594 24.917969 20.4375 C 25.082031 20.8125 24.996094 21.25 24.707031 21.539062 C 24.667969 21.582031 23.484375 22.875 23.484375 26 C 23.484375 26.554688 23.035156 27 22.484375 27 Z M 42.570312 16 L 37.167969 16 L 37.167969 12 L 42.570312 12 L 45 13.199219 L 45 14.785156 Z M 26 8 L 36 8 L 36 20 L 26 20 Z M 20 40 C 20 41.105469 19.105469 42 18 42 L 7 42 C 5.894531 42 5 41.105469 5 40 L 5 37 C 5 35.894531 5.894531 35 7 35 L 18 35 C 19.105469 35 20 35.894531 20 37 Z M 20 40 "/>
<path style=" stroke:none;fill-rule:nonzero;fill:rgb(100%,59.607843%,0%);fill-opacity:1;" d="M 7 6 C 5.894531 6 3 9.582031 3 14 C 3 18.417969 5.894531 22 7 22 Z M 9.125 22.214844 C 9.347656 22.484375 9.417969 23.082031 9.304688 23.703125 C 9.164062 24.445312 7.613281 31.148438 6.683594 35 L 17.320312 35 C 16.949219 34.605469 16.875 34.382812 17.007812 33.976562 C 17.890625 31.28125 19.582031 24.246094 19.582031 24.238281 C 19.605469 24.175781 20.515625 22 22 22 L 21.28125 20.832031 L 7.78125 20.832031 L 8.496094 22 C 8.945312 22 9.074219 22.15625 9.125 22.214844 Z M 9.125 22.214844 "/>
<path style=" stroke:none;fill-rule:nonzero;fill:rgb(47.058824%,56.470588%,61.176471%);fill-opacity:1;" d="M 36 20 L 36 8 L 39 12 L 39 16 Z M 36 20 "/>
<path style=" stroke:none;fill-rule:nonzero;fill:rgb(100%,75.686275%,2.745098%);fill-opacity:1;" d="M 29 20 C 29 21.105469 28.105469 22 27 22 L 7 22 L 7 6 L 27 6 C 28.105469 6 29 6.894531 29 8 Z M 29 20 "/>
</g>
</svg>
