<?xml version="1.0" encoding="UTF-8"?>
<svg xmlns="http://www.w3.org/2000/svg" xmlns:xlink="http://www.w3.org/1999/xlink" width="48px" height="48px" viewBox="0 0 48 48" version="1.1">
<g id="surface45627">
<path style=" stroke:none;fill-rule:nonzero;fill:rgb(32.941176%,43.137255%,47.843137%);fill-opacity:1;" d="M 22 30 L 22 23 L 40 19.382812 L 40 12 L 38 12 L 38 10 L 42 10 L 42 21 L 24 24.617188 L 24 30 Z M 22 30 "/>
<path style=" stroke:none;fill-rule:nonzero;fill:rgb(91.372549%,11.764706%,38.823529%);fill-opacity:1;" d="M 37.4375 17 L 7.566406 17 C 6.703125 17 6 16.296875 6 15.433594 L 6 6.566406 C 6 5.703125 6.703125 5 7.566406 5 L 37.433594 5 C 38.296875 5 39 5.703125 39 6.566406 L 39 15.433594 C 39 16.296875 38.296875 17 37.4375 17 Z M 37.4375 17 "/>
<path style=" stroke:none;fill-rule:nonzero;fill:rgb(100%,75.686275%,2.745098%);fill-opacity:1;" d="M 20 28 L 26 28 L 26 43 L 20 43 Z M 20 28 "/>
</g>
</svg>
